opsz8_wght1000.ufo
<glyph name="zero" format="2">
	<unicode hex="0030"/>
	<advance width="1185"/>
	<outline>
		<contour>
			<point x="74.0014648438" y="743.3229980469" type="qcurve" smooth="yes"/>
			<point x="74.0014648438" y="1109.1228027344"/>
			<point x="373.1218261719" y="1501.0239257812"/>
			<point x="595.07421875" y="1501.0239257812" type="qcurve" smooth="yes"/>
			<point x="814.1293945312" y="1501.0239257812"/>
			<point x="1110.7282714844" y="1114.05078125"/>
			<point x="1110.7282714844" y="746.2509765625" type="qcurve" smooth="yes"/>
			<point x="1110.7282714844" y="391.1630859375"/>
			<point x="824.2976074219" y="-29.5219726562"/>
			<point x="602.4929199219" y="-29.5219726562" type="qcurve" smooth="yes"/>
			<point x="379.0190429688" y="-29.5219726562"/>
			<point x="74.0014648438" y="369.8439941406"/>
		</contour>
		<contour>
			<point x="262.6508789062" y="758.8581542969" type="qcurve" smooth="yes"/>
			<point x="259" y="481"/>
			<point x="418.5838012695" y="81.7966918945"/>
			<point x="592.07421875" y="81.7966918945" type="qcurve" smooth="yes"/>
			<point x="765.5646362305" y="81.7966918945"/>
			<point x="917" y="447"/>
			<point x="922.0788574219" y="745.3229980469" type="qcurve" smooth="yes"/>
			<point x="917" y="1027"/>
			<point x="752.9833374023" y="1380.5625610352"/>
			<point x="592.4929199219" y="1380.5625610352" type="qcurve" smooth="yes"/>
			<point x="432.0025024414" y="1380.5625610352"/>
			<point x="259" y="1060"/>
		</contour>
	</outline>
</glyph>
<glyph name="one" format="2">
	<unicode hex="0031"/>
	<advance width="981"/>
	<outline>
		<contour>
			<point x="177.7673339844" y="0" type="line"/>
			<point x="177.7673339844" y="93.9951171875" type="line"/>
			<point x="435.763671875" y="128.9951171875" type="line"/>
			<point x="435.763671875" y="747.5180664062" type="line"/>
			<point x="433.763671875" y="1309.0704345703" type="line"/>
			<point x="119.7065429688" y="1350.5338134766" type="line"/>
			<point x="119.7065429688" y="1464.9946289062" type="line"/>
			<point x="585.9270019531" y="1480.53125" type="line"/>
			<point x="617.9270019531" y="1445.53125" type="line"/>
			<point x="611.9270019531" y="747.5180664062" type="line"/>
			<point x="611.9270019531" y="128.9951171875" type="line"/>
			<point x="859.9233398438" y="93.9951171875" type="line"/>
			<point x="859.9233398438" y="0" type="line"/>
		</contour>
	</outline>
</glyph>
<glyph name="two" format="2">
	<unicode hex="0032"/>
	<advance width="1053"/>
	<outline>
		<contour>
			<point x="64.8388671875" y="0" type="line"/>
			<point x="64.8388671875" y="-30.9781494141" type="line"/>
			<point x="64.2902832031" y="70.3928222656"/>
			<point x="296.1799316406" y="362.9294433594"/>
			<point x="456.48046875" y="509.6137695312" type="qcurve" smooth="yes"/>
			<point x="620.6340332031" y="654.7610473633"/>
			<point x="759.5656738281" y="948.9708862305"/>
			<point x="759.5656738281" y="1073.4468383789" type="qcurve" smooth="yes"/>
			<point x="759.5656738281" y="1191.3663330078"/>
			<point x="618.6564941406" y="1283.305480957"/>
			<point x="519.7297363281" y="1283.305480957" type="qcurve" smooth="yes"/>
			<point x="434.3642578125" y="1283.305480957"/>
			<point x="246.751953125" y="1203.7611083984"/>
			<point x="163.8388671875" y="1134.0894775391" type="qcurve"/>
			<point x="73.8388671875" y="1256.6904296875" type="line"/>
			<point x="146.7705078125" y="1326.5622558594"/>
			<point x="427.4013671875" y="1502.0239257812"/>
			<point x="624.9604492188" y="1502.0239257812" type="qcurve" smooth="yes"/>
			<point x="723.3513183594" y="1502.0239257812"/>
			<point x="980.8693847656" y="1283.3129272461"/>
			<point x="985.8693847656" y="1061.9022827148" type="qcurve" smooth="yes"/>
			<point x="991.8693847656" y="813.9144897461"/>
			<point x="726.7239379883" y="518.4366455078"/>
			<point x="614.2627563477" y="419.3250732422" type="qcurve" smooth="yes"/>
			<point x="386.4647827148" y="283.7723999023"/>
			<point x="208.0622558594" y="124.7935791016"/>
			<point x="177.7907104492" y="59.1614379883" type="qcurve"/>
			<point x="178.7907104492" y="45.3884277344" type="line"/>
			<point x="984.0244140625" y="45.3884277344" type="line"/>
			<point x="984.0244140625" y="0" type="line"/>
		</contour>
	</outline>
</glyph>
<glyph name="three" format="2">
	<unicode hex="0033"/>
	<advance width="1020"/>
	<outline>
		<contour>
			<point x="-5.7827148438" y="127" type="qcurve"/>
			<point x="105.3669433594" y="262.8028564453" type="line"/>
			<point x="164.3391113281" y="201.2426757812"/>
			<point x="297.8310546875" y="125.5796508789"/>
			<point x="398.5588378906" y="125.5796508789" type="qcurve" smooth="yes"/>
			<point x="509.9836425781" y="125.5796508789"/>
			<point x="648.1301269531" y="262.8600463867"/>
			<point x="648.1301269531" y="417.2305297852" type="qcurve" smooth="yes"/>
			<point x="648.1301269531" y="588.2575073242"/>
			<point x="467.9665527344" y="708.2794799805"/>
			<point x="307.591796875" y="708.2794799805" type="qcurve" smooth="yes"/>
			<point x="242.3542480469" y="708.2794799805" type="line"/>
			<point x="190.7241210938" y="867.9520263672" type="line"/>
			<point x="319.6142578125" y="873.9992675781" type="line" smooth="yes"/>
			<point x="454.9289550781" y="880.8452758789"/>
			<point x="632.1711425781" y="999.6011962891"/>
			<point x="629.1711425781" y="1145.3809204102" type="qcurve" smooth="yes"/>
			<point x="627.1711425781" y="1236.2666625977"/>
			<point x="524.1462402344" y="1324.1857910156"/>
			<point x="439.3049316406" y="1324.1857910156" type="qcurve" smooth="yes"/>
			<point x="341.6647949219" y="1324.1857910156"/>
			<point x="212.9948730469" y="1249.2077026367"/>
			<point x="160.10546875" y="1189.2197265625" type="qcurve"/>
			<point x="51.2827148438" y="1333.8483886719" type="line"/>
			<point x="94.4260253906" y="1386.0832519531"/>
			<point x="320.9494628906" y="1499.8798828125"/>
			<point x="506.4426269531" y="1499.8798828125" type="qcurve" smooth="yes"/>
			<point x="672.0849609375" y="1499.8798828125"/>
			<point x="891.9609375" y="1322.0405273438"/>
			<point x="891.9609375" y="1171.8117675781" type="qcurve" smooth="yes"/>
			<point x="891.9609375" y="1009.6123046875"/>
			<point x="765.3518066406" y="851.9318847656"/>
			<point x="610.6828613281" y="807.2770996094" type="qcurve"/>
			<point x="610.6828613281" y="800.4211425781" type="line"/>
			<point x="751.3518066406" y="782.2138671875"/>
			<point x="925.3515625" y="610.2299804688"/>
			<point x="925.3515625" y="429.9831542969" type="qcurve" smooth="yes"/>
			<point x="925.3515625" y="231.4548339844"/>
			<point x="652.1672363281" y="-25.0244140625"/>
			<point x="447.9790039062" y="-25.0244140625" type="qcurve" smooth="yes"/>
			<point x="270.0656738281" y="-25.0244140625"/>
			<point x="13.1215820312" y="92.3889160156"/>
		</contour>
	</outline>
</glyph>
<glyph name="four" format="2">
	<unicode hex="0034"/>
	<advance width="1106"/>
	<outline>
		<contour>
			<point x="-9.91796875" y="570.5263671875" type="line"/>
			<point x="803.9406738281" y="1485.2155761719" type="line"/>
			<point x="1124.2016601562" y="1477.2155761719" type="line"/>
			<point x="895.1040039062" y="1422.2155761719" type="line"/>
			<point x="878.1040039062" y="517.5263671875" type="line"/>
			<point x="889.1040039062" y="128.9951171875" type="line"/>
			<point x="1056.6474609375" y="93.9951171875" type="line"/>
			<point x="1056.6474609375" y="0" type="line"/>
			<point x="522.4877929688" y="0" type="line"/>
			<point x="522.4877929688" y="93.9951171875" type="line"/>
			<point x="727.9406738281" y="128.9951171875" type="line"/>
			<point x="731.9406738281" y="515.5263671875" type="line"/>
			<point x="725.9406738281" y="1194.2913818359" type="line"/>
			<point x="171.9703369141" y="572.3850097656" type="line"/>
			<point x="170.9703369141" y="553.3850097656" type="line"/>
			<point x="1099.5148925781" y="536.8728027344" type="line"/>
			<point x="1099.5148925781" y="434.4397583008" type="line"/>
			<point x="10.08203125" y="433.4397583008" type="line"/>
		</contour>
	</outline>
</glyph>
<glyph name="five" format="2">
	<unicode hex="0035"/>
	<advance width="986"/>
	<outline>
		<contour>
			<point x="6.9467773438" y="79" type="qcurve"/>
			<point x="83.0402832031" y="231.6172485352" type="line"/>
			<point x="140.9545898438" y="202.5514526367"/>
			<point x="290.8583984375" y="137.264831543"/>
			<point x="400.4311523438" y="137.264831543" type="qcurve" smooth="yes"/>
			<point x="531.740234375" y="137.264831543"/>
			<point x="683.3056640625" y="300.8891601562"/>
			<point x="683.3056640625" y="475.0111694336" type="qcurve" smooth="yes"/>
			<point x="683.3056640625" y="629.0888671875"/>
			<point x="524.8391113281" y="776.1963500977"/>
			<point x="293.9592285156" y="760.1963500977" type="qcurve" smooth="yes"/>
			<point x="201.7883300781" y="756.1963500977" type="line"/>
			<point x="128.7883300781" y="810.4931640625" type="line"/>
			<point x="155.7883300781" y="1450.1469726562" type="line"/>
			<point x="180.7883300781" y="1483.1469726562" type="line"/>
			<point x="842.2465820312" y="1483.1469726562" type="line"/>
			<point x="863.748046875" y="1419.4406738281" type="line"/>
			<point x="313.8693847656" y="1419.4406738281" type="line"/>
			<point x="299.2408447266" y="1401.4406738281" type="line"/>
			<point x="246.2774658203" y="883.2133789062" type="line"/>
			<point x="471.2644042969" y="906.78125" type="line"/>
			<point x="587.3425292969" y="929.5551757812"/>
			<point x="907.4504394531" y="709.5720214844"/>
			<point x="907.4504394531" y="502.7622070312" type="qcurve" smooth="yes"/>
			<point x="907.4504394531" y="242.3107910156"/>
			<point x="638.40625" y="-25.0244140625"/>
			<point x="466.6242675781" y="-25.0244140625" type="qcurve" smooth="yes"/>
			<point x="320.8784179688" y="-25.0244140625"/>
			<point x="56.3913574219" y="45.1010742188"/>
		</contour>
	</outline>
</glyph>
<glyph name="six" format="2">
	<unicode hex="0036"/>
	<advance width="1018"/>
	<outline>
		<contour>
			<point x="59.0014648438" y="607.7258300781" type="qcurve" smooth="yes"/>
			<point x="59.0014648438" y="1025.5393066406"/>
			<point x="458.1049804688" y="1514.216796875"/>
			<point x="775.6181640625" y="1568.53125" type="qcurve"/>
			<point x="801.6012573242" y="1388.8737792969" type="line"/>
			<point x="521.3968505859" y="1347.3551635742"/>
			<point x="240.9873046875" y="934.0848388672"/>
			<point x="240.9873046875" y="525.7258300781" type="qcurve" smooth="yes"/>
			<point x="240.9873046875" y="317.8905029297"/>
			<point x="416.8656616211" y="97.4764404297"/>
			<point x="565.6708984375" y="97.4764404297" type="qcurve" smooth="yes"/>
			<point x="719.0469360352" y="97.4764404297"/>
			<point x="847.8246459961" y="314.6942749023"/>
			<point x="848.1389160156" y="468.8485107422" type="qcurve" smooth="yes"/>
			<point x="848.4531860352" y="638.4743652344"/>
			<point x="745.3239135742" y="818.2171630859"/>
			<point x="616.8334960938" y="818.2171630859" type="qcurve" smooth="yes"/>
			<point x="539.413269043" y="818.2171630859"/>
			<point x="465.126953125" y="793.5770874023"/>
			<point x="443.8354492188" y="789.8132324219" type="qcurve"/>
			<point x="399.9794921875" y="861.0115966797" type="line"/>
			<point x="402.1845703125" y="878.5941162109"/>
			<point x="539.5646972656" y="955.7686767578"/>
			<point x="587.2580566406" y="955.7686767578" type="qcurve" smooth="yes"/>
			<point x="772.7104492188" y="955.7686767578"/>
			<point x="990.9379882812" y="754.93359375"/>
			<point x="990.9379882812" y="533.88671875" type="qcurve" smooth="yes"/>
			<point x="990.9379882812" y="266.3041992188"/>
			<point x="688.4731445312" y="-23.5268554688"/>
			<point x="526.8063964844" y="-23.5268554688" type="qcurve" smooth="yes"/>
			<point x="377.1918945312" y="-23.5268554688"/>
			<point x="59.0014648438" y="300.3745117188"/>
		</contour>
	</outline>
</glyph>
<glyph name="seven" format="2">
	<unicode hex="0037"/>
	<advance width="1112"/>
	<outline>
		<contour>
			<point x="28.7409667969" y="1210.4113769531" type="line"/>
			<point x="54.0827636719" y="1483.1469726562" type="line"/>
			<point x="1134.4409179688" y="1483.1469726562" type="line"/>
			<point x="1134.4409179688" y="1470.5043945312" type="line"/>
			<point x="704.2705078125" y="595.7680664062" type="line"/>
			<point x="454.8386230469" y="-3.0439453125" type="line"/>
			<point x="200.9245605469" y="-3.0439453125" type="line"/>
			<point x="200.9245605469" y="78.9560546875" type="line"/>
			<point x="596.8432617188" y="735.7258300781" type="line"/>
			<point x="1075.2517700195" y="1423.599609375" type="line"/>
			<point x="1049.5083618164" y="1444.4128417969" type="line"/>
			<point x="243.5407714844" y="1444.4128417969" type="line"/>
			<point x="151.7407226562" y="1210.4113769531" type="line"/>
		</contour>
	</outline>
</glyph>
<glyph name="eight" format="2">
	<unicode hex="0038"/>
	<advance width="1022"/>
	<outline>
		<contour>
			<point x="20.9467773438" y="384.7683105469" type="qcurve" smooth="yes"/>
			<point x="20.9467773438" y="588.8852539062"/>
			<point x="274.1022949219" y="827.427734375"/>
			<point x="567.8410644531" y="874.4226074219" type="qcurve"/>
			<point x="663.8572387695" y="812.4174194336" type="line"/>
			<point x="526.8401489258" y="752.5672607422"/>
			<point x="428.8536987305" y="485.4827880859"/>
			<point x="428.8536987305" y="336.6760253906" type="qcurve" smooth="yes"/>
			<point x="428.8536987305" y="213.494934082"/>
			<point x="458.7966918945" y="90.0238037109"/>
			<point x="530.4000854492" y="90.0238037109" type="qcurve" smooth="yes"/>
			<point x="646.4822387695" y="90.0238037109"/>
			<point x="835.9719848633" y="279.5570678711"/>
			<point x="835.9719848633" y="424.7003173828" type="qcurve" smooth="yes"/>
			<point x="835.9719848633" y="548.6480712891"/>
			<point x="784.9217529297" y="716.8432617188"/>
			<point x="680.1770019531" y="740.5120849609" type="qcurve" smooth="yes"/>
			<point x="377.5716552734" y="857.8854370117"/>
			<point x="157.3605957031" y="1046.4124145508"/>
			<point x="161.3605957031" y="1241.3315429688" type="qcurve" smooth="yes"/>
			<point x="165.3605957031" y="1354.2451171875"/>
			<point x="338.9558105469" y="1494.087890625"/>
			<point x="463.1130371094" y="1494.087890625" type="qcurve" smooth="yes"/>
			<point x="639.5270996094" y="1494.087890625"/>
			<point x="899.1010742188" y="1342.7319335938"/>
			<point x="899.1010742188" y="1192.4619140625" type="qcurve" smooth="yes"/>
			<point x="899.1010742188" y="1083.66796875"/>
			<point x="696.0319824219" y="858.7316894531"/>
			<point x="509.3796386719" y="773.5390625" type="qcurve"/>
			<point x="390.2517700195" y="825.537109375" type="line"/>
			<point x="468.484375" y="903.8205566406"/>
			<point x="559.0512084961" y="1108.1947021484"/>
			<point x="559.0512084961" y="1193.9589233398" type="qcurve" smooth="yes"/>
			<point x="559.0512084961" y="1278.2184448242"/>
			<point x="492.5921020508" y="1344.1582641602"/>
			<point x="448.75390625" y="1344.1582641602" type="qcurve" smooth="yes"/>
			<point x="398.6744995117" y="1344.1582641602"/>
			<point x="249.7786865234" y="1228.2536621094"/>
			<point x="249.7786865234" y="1159.6283569336" type="qcurve" smooth="yes"/>
			<point x="249.7786865234" y="1039.5663452148"/>
			<point x="429.7711181641" y="902.2743530273"/>
			<point x="654.9476318359" y="821.2504272461" type="qcurve" smooth="yes"/>
			<point x="751.7034912109" y="797.9511108398"/>
			<point x="1001.5405273438" y="568.7299804688"/>
			<point x="1001.5405273438" y="383.1652832031" type="qcurve" smooth="yes"/>
			<point x="1001.5405273438" y="223.7592773438"/>
			<point x="779.6013183594" y="-25.5219726562"/>
			<point x="543.5983886719" y="-25.5219726562" type="qcurve" smooth="yes"/>
			<point x="271.3762207031" y="-25.5219726562"/>
			<point x="20.9467773438" y="207.2175292969"/>
		</contour>
	</outline>
</glyph>
<glyph name="nine" format="2">
	<unicode hex="0039"/>
	<advance width="1016"/>
	<outline>
		<contour>
			<point x="26.6496582031" y="962.5942382812" type="qcurve" smooth="yes"/>
			<point x="26.6496582031" y="1213.7001953125"/>
			<point x="341.8005371094" y="1504.703125"/>
			<point x="497.5073242188" y="1504.703125" type="qcurve" smooth="yes"/>
			<point x="626.5866699219" y="1504.703125"/>
			<point x="957.330078125" y="1193.7937011719"/>
			<point x="957.330078125" y="872.2785644531" type="qcurve" smooth="yes"/>
			<point x="957.330078125" y="461.9162597656"/>
			<point x="558.0083007812" y="-36.1301269531"/>
			<point x="239.0498046875" y="-91.7727050781" type="qcurve"/>
			<point x="213.9041137695" y="86.5952758789" type="line"/>
			<point x="489.2222290039" y="126.4390869141"/>
			<point x="763.4580078125" y="547.4188842773"/>
			<point x="763.4580078125" y="954.2065429688" type="qcurve" smooth="yes"/>
			<point x="763.4580078125" y="1171.3614501953"/>
			<point x="599.584777832" y="1399.7276000977"/>
			<point x="446.9294433594" y="1399.7276000977" type="qcurve" smooth="yes"/>
			<point x="285.5466918945" y="1399.7276000977"/>
			<point x="157.5625" y="1174.4841918945"/>
			<point x="157.5625" y="1008.0131835938" type="qcurve" smooth="yes"/>
			<point x="157.5625" y="826.7399902344"/>
			<point x="284.889465332" y="658.9931640625"/>
			<point x="427.2855834961" y="658.9931640625" type="qcurve" smooth="yes"/>
			<point x="467.9309692383" y="658.9931640625"/>
			<point x="544.8692626953" y="682.6187744141"/>
			<point x="563.9677734375" y="684.2230224609" type="qcurve"/>
			<point x="608.0397949219" y="606.5617675781" type="line"/>
			<point x="612.4169921875" y="598.8200683594"/>
			<point x="492.955078125" y="511.1486816406"/>
			<point x="372.5458984375" y="511.98046875" type="qcurve" smooth="yes"/>
			<point x="242.3818359375" y="514.4758300781"/>
			<point x="26.6496582031" y="723.7292480469"/>
		</contour>
	</outline>
</glyph>
<glyph name="B" format="2">
	<unicode hex="0042"/>
	<advance width="1223"/>
	<outline>
		<contour>
			<point x="82.0052490234" y="0" type="line"/>
			<point x="82.0052490234" y="99.9951171875" type="line"/>
			<point x="290.0042724609" y="134.9951171875" type="line"/>
			<point x="292.0042724609" y="762.7072753906" type="line"/>
			<point x="290.0042724609" y="1352.0048828125" type="line"/>
			<point x="82.0052490234" y="1386.0048828125" type="line"/>
			<point x="82.0052490234" y="1500" type="line"/>
			<point x="641.6063842773" y="1500" type="line" smooth="yes"/>
			<point x="842.8984375" y="1500"/>
			<point x="1040.5481567383" y="1312"/>
			<point x="1040.5481567383" y="1169" type="qcurve" smooth="yes"/>
			<point x="1040.5481567383" y="1034"/>
			<point x="929.8786621094" y="854"/>
			<point x="787.9863891602" y="831" type="qcurve"/>
			<point x="787.9863891602" y="824" type="line"/>
			<point x="944.0869750977" y="796"/>
			<point x="1193" y="604"/>
			<point x="1142.928527832" y="433" type="qcurve" smooth="yes"/>
			<point x="1142.928527832" y="246"/>
			<point x="865.2366943359" y="1"/>
			<point x="657.8917236328" y="0" type="qcurve" smooth="yes"/>
		</contour>
		<contour>
			<point x="467.0052490234" y="156.7767944336" type="line"/>
			<point x="507.9710693359" y="131.5524291992" type="line"/>
			<point x="621.4123535156" y="131.5524291992" type="line" smooth="yes"/>
			<point x="795.743347168" y="131.5524291992"/>
			<point x="959.7911987305" y="305.6351928711"/>
			<point x="959.7911987305" y="432.5214233398" type="qcurve" smooth="yes"/>
			<point x="959.7911987305" y="567.4799194336"/>
			<point x="814.3278198242" y="736.0966186523"/>
			<point x="690.2414550781" y="736.0966186523" type="qcurve" smooth="yes"/>
			<point x="465.7467041016" y="736.0966186523" type="line"/>
			<point x="463.0052490234" y="723.4844360352" type="line"/>
		</contour>
		<contour>
			<point x="465.0052490234" y="879.5874023438" type="line"/>
			<point x="464.311340332" y="859.8459472656" type="line"/>
			<point x="624.4732666016" y="859.8459472656" type="line" smooth="yes"/>
			<point x="752.2963256836" y="859.8459472656"/>
			<point x="858.4108276367" y="1012.4515380859"/>
			<point x="858.4108276367" y="1135.5906982422" type="qcurve" smooth="yes"/>
			<point x="858.4108276367" y="1242.2718505859"/>
			<point x="745.7792358398" y="1365.9124755859"/>
			<point x="634.9561767578" y="1365.9124755859" type="qcurve" smooth="yes"/>
			<point x="492.9710693359" y="1365.9124755859" type="line"/>
			<point x="468.0052490234" y="1348.1234741211" type="line"/>
		</contour>
	</outline>
	<anchor name="bottom" x="614" y="0"/>
	<anchor name="top" x="614" y="1500"/>
</glyph>
<glyph name="F" format="2">
	<unicode hex="0046"/>
	<advance width="1114"/>
	<outline>
		<contour>
			<point x="82.0052490234" y="0" type="line"/>
			<point x="82.0052490234" y="99.9951171875" type="line"/>
			<point x="290.0042724609" y="134.9951171875" type="line"/>
			<point x="292.0042724609" y="754" type="line"/>
			<point x="290.0042724609" y="1352.0048828125" type="line"/>
			<point x="82.0052490234" y="1386.0048828125" type="line"/>
			<point x="82.0052490234" y="1500" type="line"/>
			<point x="1084.7565917969" y="1500" type="line"/>
			<point x="1084.7565917969" y="1139.0659790039" type="line"/>
			<point x="971.7520751953" y="1139.0659790039" type="line"/>
			<point x="936.7520751953" y="1368.3345336914" type="line"/>
			<point x="505.1779785156" y="1368.3345336914" type="line"/>
			<point x="471.1779785156" y="1344.3345336914" type="line"/>
			<point x="475.1779785156" y="760" type="line"/>
			<point x="477.1779785156" y="134.9951171875" type="line"/>
			<point x="692.0615234375" y="100.9951171875" type="line"/>
			<point x="692.0615234375" y="0" type="line"/>
		</contour>
		<contour>
			<point x="422.541015625" y="711.8714599609" type="line"/>
			<point x="422.541015625" y="813.6499633789" type="line"/>
			<point x="818.3510131836" y="823.6499633789" type="line"/>
			<point x="845.3510131836" y="988.7985229492" type="line"/>
			<point x="942.8215942383" y="988.7985229492" type="line"/>
			<point x="942.8215942383" y="537.4200439453" type="line"/>
			<point x="845.3510131836" y="537.4200439453" type="line"/>
			<point x="818.3510131836" y="701.8714599609" type="line"/>
		</contour>
	</outline>
	<anchor name="bottom" x="578" y="0"/>
	<anchor name="top" x="622" y="1500"/>
</glyph>
<glyph name="G" format="2">
	<unicode hex="0047"/>
	<advance width="1609"/>
	<outline>
		<contour>
			<point x="81.0009765625" y="733" type="qcurve" smooth="yes"/>
			<point x="81.0009765625" y="1095.2780761719"/>
			<point x="483.5126953125" y="1511.5366210938"/>
			<point x="866.1675415039" y="1511.5366210938" type="qcurve" smooth="yes"/>
			<point x="977.6030883789" y="1511.5366210938"/>
			<point x="1067.7828979492" y="1496.7658691406"/>
			<point x="1175.7145385742" y="1455" type="qcurve"/>
			<point x="1210.1974487305" y="1487" type="line"/>
			<point x="1322.9349975586" y="1487" type="line"/>
			<point x="1322.9349975586" y="1054.7404174805" type="line"/>
			<point x="1180.3225097656" y="1054.7404174805" type="line"/>
			<point x="1135.5716552734" y="1254.7438354492" type="line" smooth="yes"/>
			<point x="1130.5716552734" y="1286.7438354492"/>
			<point x="1051.8822021484" y="1368.4627685547"/>
			<point x="855.7626342773" y="1368.4627685547" type="qcurve" smooth="yes"/>
			<point x="585.4157714844" y="1368.4627685547"/>
			<point x="276.5656738281" y="1056.375"/>
			<point x="276.5656738281" y="758" type="qcurve" smooth="yes"/>
			<point x="276.5656738281" y="425.1606445312"/>
			<point x="628.3087768555" y="117.3403320312"/>
			<point x="889.3218383789" y="118.3403320312" type="qcurve" smooth="yes"/>
			<point x="1004.9910888672" y="118.3403320312"/>
			<point x="1192.0904541016" y="137.0350952148"/>
			<point x="1274.8921508789" y="152.7630004883" type="qcurve"/>
			<point x="1274.8921508789" y="530.0024414062" type="line"/>
			<point x="1101.1911621094" y="560.0024414062" type="line"/>
			<point x="1101.1911621094" y="674.9975585938" type="line"/>
			<point x="1556.7139892578" y="674.9975585938" type="line"/>
			<point x="1556.7139892578" y="560.0024414062" type="line"/>
			<point x="1443.8203735352" y="530.0024414062" type="line"/>
			<point x="1443.8203735352" y="199" type="line"/>
			<point x="1317.2763671875" y="81.2292480469"/>
			<point x="1024.9694213867" y="-19.5366210938"/>
			<point x="876.4850463867" y="-19.5366210938" type="qcurve" smooth="yes"/>
			<point x="549.8187255859" y="-19.5366210938"/>
			<point x="81.0009765625" y="350.4829101562"/>
		</contour>
	</outline>
	<anchor name="bottom" x="872" y="0"/>
	<anchor name="top" x="836" y="1500"/>
</glyph>
<glyph name="H" format="2">
	<unicode hex="0048"/>
	<advance width="1740"/>
	<outline>
		<contour>
			<point x="82.0052490234" y="0" type="line"/>
			<point x="82.0052490234" y="99.9951171875" type="line"/>
			<point x="290.0042724609" y="134.9951171875" type="line"/>
			<point x="292.0042724609" y="754" type="line"/>
			<point x="290.0042724609" y="1352.0048828125" type="line"/>
			<point x="82.0052490234" y="1386.0048828125" type="line"/>
			<point x="82.0052490234" y="1500" type="line"/>
			<point x="676.1770019531" y="1500" type="line"/>
			<point x="676.1770019531" y="1386.0048828125" type="line"/>
			<point x="470.1779785156" y="1352.0048828125" type="line"/>
			<point x="468.1779785156" y="754" type="line"/>
			<point x="470.1779785156" y="134.9951171875" type="line"/>
			<point x="676.1770019531" y="99.9951171875" type="line"/>
			<point x="676.1770019531" y="0" type="line"/>
		</contour>
		<contour>
			<point x="200.1779785156" y="712.6882324219" type="line"/>
			<point x="200.1779785156" y="844.6918945312" type="line"/>
			<point x="871.6416625977" y="836.6918945312" type="line"/>
			<point x="1561.7333374023" y="844.6918945312" type="line"/>
			<point x="1561.7333374023" y="712.6882324219" type="line"/>
			<point x="871.6416625977" y="712.6882324219" type="line"/>
		</contour>
		<contour>
			<point x="1063.7343139648" y="0" type="line"/>
			<point x="1063.7343139648" y="99.9951171875" type="line"/>
			<point x="1269.7333374023" y="134.9951171875" type="line"/>
			<point x="1271.7333374023" y="754" type="line"/>
			<point x="1269.7333374023" y="1352.0048828125" type="line"/>
			<point x="1063.7343139648" y="1386.0048828125" type="line"/>
			<point x="1063.7343139648" y="1500" type="line"/>
			<point x="1657.9060668945" y="1500" type="line"/>
			<point x="1657.9060668945" y="1386.0048828125" type="line"/>
			<point x="1449.907043457" y="1352.0048828125" type="line"/>
			<point x="1447.907043457" y="754" type="line"/>
			<point x="1449.907043457" y="134.9951171875" type="line"/>
			<point x="1657.9060668945" y="99.9951171875" type="line"/>
			<point x="1657.9060668945" y="0" type="line"/>
		</contour>
	</outline>
	<anchor name="bottom" x="870" y="0"/>
	<anchor name="center" x="870" y="1079"/>
	<anchor name="top" x="870" y="1500"/>
	<anchor name="tonos" x="0" y="1500"/>
	<anchor name="cy_descender" x="1658" y="100"/>
</glyph>
<glyph name="N" format="2">
	<unicode hex="004E"/>
	<advance width="1577"/>
	<outline>
		<contour>
			<point x="82.0052490234" y="0" type="line"/>
			<point x="82.0052490234" y="99.9951171875" type="line"/>
			<point x="273.0042724609" y="134.9951171875" type="line"/>
			<point x="275.0042724609" y="754" type="line"/>
			<point x="273.0042724609" y="1353.0048828125" type="line"/>
			<point x="82.0052490234" y="1387.0048828125" type="line"/>
			<point x="82.0052490234" y="1500" type="line"/>
			<point x="457.2416992188" y="1500" type="line"/>
			<point x="930.990234375" y="749.3897705078" type="line"/>
			<point x="1134.6311645508" y="419.7853393555" type="line"/>
			<point x="1178.0977172852" y="339.5248413086" type="line"/>
			<point x="1190.924987793" y="343.2278442383" type="line"/>
			<point x="1180.1521606445" y="463.2278442383" type="line"/>
			<point x="1175.7308349609" y="753.3637695312" type="line"/>
			<point x="1174.4338378906" y="1353.0048828125" type="line"/>
			<point x="996.5502929688" y="1387.0048828125" type="line"/>
			<point x="996.5502929688" y="1500" type="line"/>
			<point x="1495.5769042969" y="1500" type="line"/>
			<point x="1495.5769042969" y="1387.0048828125" type="line"/>
			<point x="1307.5778808594" y="1353.0048828125" type="line"/>
			<point x="1305.5778808594" y="729.3637695312" type="line"/>
			<point x="1301.5778808594" y="0" type="line"/>
			<point x="1180.1295776367" y="0" type="line"/>
			<point x="790.3065795898" y="626.397277832" type="line"/>
			<point x="445.3888549805" y="1220.4814453125" type="line"/>
			<point x="400.1802368164" y="1303.8755493164" type="line"/>
			<point x="388.1802368164" y="1300.1725463867" type="line"/>
			<point x="401.37109375" y="1200.1725463867" type="line"/>
			<point x="406.9650878906" y="783.7270507812" type="line"/>
			<point x="408.9650878906" y="134.9951171875" type="line"/>
			<point x="583.4063720703" y="99.9951171875" type="line"/>
			<point x="583.4063720703" y="0" type="line"/>
		</contour>
	</outline>
	<anchor name="bottom" x="800" y="0"/>
	<anchor name="top" x="800" y="1500"/>
	<anchor name="engtail" x="1324" y="0"/>
	<anchor name="liga" x="1600" y="0"/>
</glyph>
<glyph name="P" format="2">
	<unicode hex="0050"/>
	<advance width="1234"/>
	<outline>
		<contour>
			<point x="82.0052490234" y="0" type="line"/>
			<point x="82.0052490234" y="99.9951171875" type="line"/>
			<point x="290.0042724609" y="135.9951171875" type="line"/>
			<point x="292.875" y="754" type="line"/>
			<point x="290.0042724609" y="1352.0048828125" type="line"/>
			<point x="82.0052490234" y="1386.0048828125" type="line"/>
			<point x="82.0052490234" y="1500" type="line"/>
			<point x="754.5974731445" y="1500" type="line" smooth="yes"/>
			<point x="931.5435180664" y="1500"/>
			<point x="1178.6866455078" y="1274"/>
			<point x="1178.6866455078" y="1058" type="qcurve" smooth="yes"/>
			<point x="1178.6866455078" y="788"/>
			<point x="886.496887207" y="556.6043701172"/>
			<point x="694.0800170898" y="556.6043701172" type="qcurve" smooth="yes"/>
			<point x="607.1921386719" y="556.6043701172"/>
			<point x="473.1779785156" y="569.6043701172"/>
			<point x="379.470703125" y="585.6043701172" type="qcurve"/>
			<point x="388.470703125" y="715.7903442383" type="line"/>
			<point x="458.7559814453" y="706.7903442383"/>
			<point x="532.9567260742" y="696.7903442383"/>
			<point x="631.73828125" y="696.7903442383" type="qcurve" smooth="yes"/>
			<point x="781.2275390625" y="696.7903442383"/>
			<point x="993.1674804688" y="871.2700195312"/>
			<point x="989.1674804688" y="1041" type="qcurve" smooth="yes"/>
			<point x="986.1674804688" y="1170.3017578125"/>
			<point x="805.4986572266" y="1354.109375"/>
			<point x="652.3432006836" y="1354.109375" type="qcurve" smooth="yes"/>
			<point x="498.1779785156" y="1354.109375" type="line"/>
			<point x="470.1779785156" y="1334.109375" type="line"/>
			<point x="468.1779785156" y="764" type="line"/>
			<point x="470.1779785156" y="134.9951171875" type="line"/>
			<point x="683.0615234375" y="99.9951171875" type="line"/>
			<point x="683.0615234375" y="0" type="line"/>
		</contour>
	</outline>
	<anchor name="bottom" x="634" y="0"/>
	<anchor name="top" x="634" y="1500"/>
</glyph>
<glyph name="T" format="2">
	<unicode hex="0054"/>
	<advance width="1319"/>
	<outline>
		<contour>
			<point x="56.3941650391" y="1044.8753662109" type="line"/>
			<point x="56.3941650391" y="1500" type="line"/>
			<point x="1268.2666625977" y="1500" type="line"/>
			<point x="1268.2666625977" y="1044.8753662109" type="line"/>
			<point x="1158.2621459961" y="1044.8753662109" type="line"/>
			<point x="1122.2599487305" y="1374.8696289062" type="line"/>
			<point x="767.6459350586" y="1374.8696289062" type="line"/>
			<point x="749.6459350586" y="1358.8696289062" type="line"/>
			<point x="750.6459350586" y="779.6326293945" type="line"/>
			<point x="751.6459350586" y="134.9951171875" type="line"/>
			<point x="970.9429931641" y="99.9951171875" type="line"/>
			<point x="970.9429931641" y="0" type="line"/>
			<point x="351.88671875" y="0" type="line"/>
			<point x="351.88671875" y="99.9951171875" type="line"/>
			<point x="571.4722290039" y="134.9951171875" type="line"/>
			<point x="573.4722290039" y="779.6326293945" type="line"/>
			<point x="574.4722290039" y="1358.8696289062" type="line"/>
			<point x="564.4722290039" y="1374.8696289062" type="line"/>
			<point x="201.4008789062" y="1374.8696289062" type="line"/>
			<point x="165.3986816406" y="1044.8753662109" type="line"/>
		</contour>
	</outline>
	<anchor name="bottom" x="644" y="0"/>
	<anchor name="center" x="644" y="750"/>
	<anchor name="top" x="644" y="1500"/>
	<anchor name="cy_descender" x="951" y="100"/>
</glyph>
<glyph name="U" format="2">
	<unicode hex="0055"/>
	<advance width="1605"/>
	<outline>
		<contour>
			<point x="67.1549072266" y="1387.0048828125" type="line"/>
			<point x="67.1549072266" y="1500" type="line"/>
			<point x="645.7493286133" y="1500" type="line"/>
			<point x="645.7493286133" y="1387.0048828125" type="line"/>
			<point x="457.89453125" y="1353.0048828125" type="line"/>
			<point x="454.89453125" y="794" type="line"/>
			<point x="456.89453125" y="493.1567993164" type="line" smooth="yes"/>
			<point x="455.0823974609" y="346.1372680664"/>
			<point x="621.9826049805" y="124.7112426758"/>
			<point x="831.2431030273" y="124.7112426758" type="qcurve" smooth="yes"/>
			<point x="1021.2935180664" y="124.7112426758"/>
			<point x="1185.3257446289" y="344.1372680664"/>
			<point x="1190.7260131836" y="507.1567993164" type="qcurve" smooth="yes"/>
			<point x="1191.7260131836" y="794" type="line"/>
			<point x="1192.0321044922" y="1353.0048828125" type="line"/>
			<point x="992.5908203125" y="1387.0048828125" type="line"/>
			<point x="992.5908203125" y="1500" type="line"/>
			<point x="1516.7239379883" y="1500" type="line"/>
			<point x="1516.7239379883" y="1387.0048828125" type="line"/>
			<point x="1327.7249145508" y="1353.0048828125" type="line"/>
			<point x="1326.7249145508" y="794" type="line"/>
			<point x="1328.2638549805" y="503" type="line" smooth="yes"/>
			<point x="1330.2381591797" y="262.7316894531"/>
			<point x="1116.4638061523" y="-18.5366210938"/>
			<point x="810.0217285156" y="-18.5366210938" type="qcurve" smooth="yes"/>
			<point x="509.9568481445" y="-18.5366210938"/>
			<point x="280.7116699219" y="223.4829101562"/>
			<point x="282.7116699219" y="471" type="qcurve" smooth="yes"/>
			<point x="282.8843994141" y="794" type="line"/>
			<point x="282.7116699219" y="1353.0048828125" type="line"/>
		</contour>
	</outline>
	<anchor name="bottom" x="832" y="0"/>
	<anchor name="ogonek" x="1042" y="0"/>
	<anchor name="top" x="832" y="1500"/>
	<anchor name="topright" x="1590" y="1500"/>
</glyph>
<glyph name="b" format="2">
	<unicode hex="0062"/>
	<advance width="1143"/>
	<outline>
		<contour>
			<point x="161.5074462891" y="0" type="line"/>
			<point x="169.5074462891" y="426.9987792969" type="line"/>
			<point x="161.4832763672" y="1371.396484375" type="line"/>
			<point x="13.4832763672" y="1401.396484375" type="line"/>
			<point x="13.4832763672" y="1500" type="line"/>
			<point x="246.7784423828" y="1529.0244140625" type="line"/>
			<point x="278.7784423828" y="1529.0244140625" type="line"/>
			<point x="335.7784423828" y="1482.0244140625" type="line"/>
			<point x="334.7784423828" y="834.5936279297" type="line"/>
			<point x="355.7341308594" y="908.3532714844"/>
			<point x="540.4140625" y="1013.3305664062"/>
			<point x="654.9449462891" y="1013.3305664062" type="qcurve" smooth="yes"/>
			<point x="843.6441650391" y="1013.3305664062"/>
			<point x="1072.1917724609" y="754.3198242188"/>
			<point x="1072.1917724609" y="529.7434082031" type="qcurve" smooth="yes"/>
			<point x="1072.1917724609" y="286.8254394531"/>
			<point x="854.1295166016" y="-10.2780761719"/>
			<point x="617.4859619141" y="-10.2780761719" type="qcurve" smooth="yes"/>
			<point x="502.2908935547" y="-10.2780761719"/>
			<point x="342.208984375" y="44.4877929688"/>
			<point x="310.4996337891" y="72.5661621094" type="qcurve"/>
			<point x="230.4996337891" y="0" type="line"/>
		</contour>
		<contour>
			<point x="330.7784423828" y="371.7752685547" type="line"/>
			<point x="335.7784423828" y="230.4360351562" type="line"/>
			<point x="359.5037841797" y="183.3525390625"/>
			<point x="531.9016113281" y="115.5648193359"/>
			<point x="620.2292480469" y="115.5648193359" type="qcurve" smooth="yes"/>
			<point x="764.4040527344" y="115.5648193359"/>
			<point x="927.1383056641" y="376.1015625"/>
			<point x="927.1383056641" y="486.9724121094" type="qcurve" smooth="yes"/>
			<point x="927.1383056641" y="606.0783691406"/>
			<point x="762.6993408203" y="844.9438476562"/>
			<point x="623.4068603516" y="844.9438476562" type="qcurve" smooth="yes"/>
			<point x="516.7612304688" y="844.9438476562"/>
			<point x="368.0489501953" y="782.1154785156"/>
			<point x="336.7784423828" y="735.736328125" type="qcurve"/>
		</contour>
	</outline>
	<anchor name="bottom" x="571" y="0"/>
	<anchor name="top" x="571" y="1533"/>
</glyph>
<glyph name="c" format="2">
	<unicode hex="0063"/>
	<advance width="936"/>
	<outline>
		<contour>
			<point x="64.0025634766" y="476.2053222656" type="qcurve" smooth="yes"/>
			<point x="64.0025634766" y="741.6115722656"/>
			<point x="336.1348266602" y="1019.5086669922"/>
			<point x="557.7814941406" y="1019.5086669922" type="qcurve" smooth="yes"/>
			<point x="693.6748046875" y="1019.5086669922"/>
			<point x="721.8143310547" y="976.2452392578"/>
			<point x="772.8374023438" y="939.9866943359" type="qcurve"/>
			<point x="809.3234863281" y="996.9866943359" type="line"/>
			<point x="895.4146728516" y="996.9866943359" type="line"/>
			<point x="895.4146728516" y="630.1403808594" type="line"/>
			<point x="792.1088867188" y="628.1403808594" type="line"/>
			<point x="748.8896484375" y="776.5395507812" type="line" smooth="yes"/>
			<point x="731.4758300781" y="818.7390136719"/>
			<point x="624.4510498047" y="887.4534912109"/>
			<point x="531.0749511719" y="887.4534912109" type="qcurve" smooth="yes"/>
			<point x="385.3413085938" y="887.4534912109"/>
			<point x="250.2010498047" y="653.4743041992"/>
			<point x="250.2010498047" y="513.2850341797" type="qcurve" smooth="yes"/>
			<point x="250.2010498047" y="376.2340698242"/>
			<point x="377.2260742188" y="152.31640625"/>
			<point x="549.3713378906" y="152.31640625" type="qcurve" smooth="yes"/>
			<point x="656.5723876953" y="152.31640625"/>
			<point x="808.1127929688" y="205.7913818359"/>
			<point x="869.5231933594" y="241.6705322266" type="qcurve"/>
			<point x="938.3934326172" y="149" type="line"/>
			<point x="860.8323974609" y="73"/>
			<point x="693.0057373047" y="-22.0244140625"/>
			<point x="555.1759033203" y="-22.0244140625" type="qcurve" smooth="yes"/>
			<point x="350.8371582031" y="-22.0244140625"/>
			<point x="64.0025634766" y="263.6999511719"/>
		</contour>
	</outline>
	<anchor name="bottom" x="563" y="0"/>
	<anchor name="top" x="534" y="1000"/>
</glyph>
<glyph name="h" format="2">
	<unicode hex="0068"/>
	<advance width="1268"/>
	<outline>
		<contour>
			<point x="71.8363037109" y="0" type="line"/>
			<point x="71.8363037109" y="81.00390625" type="line"/>
			<point x="219.8363037109" y="116.00390625" type="line"/>
			<point x="221.8363037109" y="580.9758300781" type="line"/>
			<point x="219.8363037109" y="1374.99609375" type="line"/>
			<point x="71.8363037109" y="1404.99609375" type="line"/>
			<point x="71.8363037109" y="1500" type="line"/>
			<point x="300.8284912109" y="1529.0244140625" type="line"/>
			<point x="332.8284912109" y="1529.0244140625" type="line"/>
			<point x="389.8284912109" y="1482.0244140625" type="line"/>
			<point x="388.8284912109" y="871.4099121094" type="line"/>
			<point x="440.0749511719" y="931.7386474609"/>
			<point x="623.1749267578" y="1015.5305175781"/>
			<point x="725.4558105469" y="1015.5305175781" type="qcurve" smooth="yes"/>
			<point x="885.0048828125" y="1015.5305175781"/>
			<point x="1046.4475097656" y="875.7144775391"/>
			<point x="1046.4475097656" y="753.8149414062" type="qcurve" smooth="yes"/>
			<point x="1046.4475097656" y="668.2546386719"/>
			<point x="1046.4475097656" y="613.8249511719"/>
			<point x="1046.4475097656" y="579.9758300781" type="qcurve" smooth="yes"/>
			<point x="1052.4475097656" y="116.00390625" type="line"/>
			<point x="1202.4475097656" y="81.00390625" type="line"/>
			<point x="1202.4475097656" y="0" type="line"/>
			<point x="760.4553222656" y="0" type="line"/>
			<point x="760.4553222656" y="81.00390625" type="line"/>
			<point x="874.4553222656" y="116.00390625" type="line"/>
			<point x="878.4553222656" y="593.0278320312" type="line"/>
			<point x="878.4553222656" y="731.5418701172" type="line" smooth="yes"/>
			<point x="878.4553222656" y="783.4671630859"/>
			<point x="770.4920654297" y="891.7839355469"/>
			<point x="678.1656494141" y="891.7839355469" type="qcurve" smooth="yes"/>
			<point x="594.9234619141" y="891.7839355469"/>
			<point x="441.2752685547" y="824.8729248047"/>
			<point x="389.5797119141" y="744.4085693359" type="qcurve"/>
			<point x="386.8284912109" y="599.7448730469" type="line"/>
			<point x="389.8284912109" y="116.00390625" type="line"/>
			<point x="516.8284912109" y="81.00390625" type="line"/>
			<point x="516.8284912109" y="0" type="line"/>
		</contour>
	</outline>
	<anchor name="bottom" x="629" y="0"/>
	<anchor name="center" x="347" y="1202"/>
	<anchor name="top" x="304" y="1534"/>
</glyph>
<glyph name="k" format="2">
	<unicode hex="006B"/>
	<advance width="999"/>
	<outline>
		<contour>
			<point x="75.6525878906" y="0" type="line"/>
			<point x="75.6525878906" y="81.00390625" type="line"/>
			<point x="223.6525878906" y="116.00390625" type="line"/>
			<point x="225.6525878906" y="557" type="line"/>
			<point x="223.6525878906" y="1374.99609375" type="line"/>
			<point x="75.6525878906" y="1404.99609375" type="line"/>
			<point x="75.6525878906" y="1500" type="line"/>
			<point x="299.4812011719" y="1529.0244140625" type="line"/>
			<point x="331.4812011719" y="1529.0244140625" type="line"/>
			<point x="388.4812011719" y="1482.0244140625" type="line"/>
			<point x="391.4812011719" y="577" type="line"/>
			<point x="388.4812011719" y="116.00390625" type="line"/>
			<point x="515.4812011719" y="81.00390625" type="line"/>
			<point x="515.4812011719" y="0" type="line"/>
		</contour>
		<contour>
			<point x="311.6149902344" y="388.1351318359" type="line"/>
			<point x="268.4514160156" y="477.1461181641" type="line"/>
			<point x="653.0653076172" y="867.7900390625" type="line"/>
			<point x="538.0653076172" y="897.7900390625" type="line"/>
			<point x="538.0653076172" y="998.7939453125" type="line"/>
			<point x="1000.6801757812" y="998.7939453125" type="line"/>
			<point x="1000.6801757812" y="897.7900390625" type="line"/>
			<point x="786.6801757812" y="862.7900390625" type="line"/>
		</contour>
		<contour>
			<point x="438.8864746094" y="597.0654296875" type="line"/>
			<point x="519.5266113281" y="752.2852783203" type="line"/>
			<point x="932.4417724609" y="123.00390625" type="line"/>
			<point x="1096.4417724609" y="81.00390625" type="line"/>
			<point x="1096.4417724609" y="0" type="line"/>
			<point x="870.4954833984" y="0" type="line"/>
			<point x="832.4954833984" y="-40.99609375" type="line"/>
			<point x="788.4954833984" y="49.00390625" type="line"/>
		</contour>
	</outline>
	<anchor name="bottom" x="608" y="0"/>
	<anchor name="top" x="578" y="1534"/>
</glyph>
<glyph name="l" format="2">
	<unicode hex="006C"/>
	<advance width="619"/>
	<outline>
		<contour>
			<point x="98.8157958984" y="0" type="line"/>
			<point x="98.8157958984" y="81.00390625" type="line"/>
			<point x="240.8157958984" y="116.00390625" type="line"/>
			<point x="242.8157958984" y="527" type="line"/>
			<point x="240.8157958984" y="1372.99609375" type="line"/>
			<point x="84.8157958984" y="1402.99609375" type="line"/>
			<point x="84.8157958984" y="1500" type="line"/>
			<point x="326.8079833984" y="1529.0244140625" type="line"/>
			<point x="363.8079833984" y="1527.0244140625" type="line"/>
			<point x="415.8079833984" y="1481.0244140625" type="line"/>
			<point x="413.8079833984" y="527" type="line"/>
			<point x="415.8079833984" y="116.00390625" type="line"/>
			<point x="552.8079833984" y="81.00390625" type="line"/>
			<point x="552.8079833984" y="0" type="line"/>
		</contour>
	</outline>
	<anchor name="bottom" x="316" y="0"/>
	<anchor name="center" x="316" y="750"/>
	<anchor name="top" x="316" y="1534"/>
	<anchor name="topright" x="367" y="1000"/>
	<anchor name="centerright" x="746" y="680"/>
	<anchor name="yu_dash" x="321" y="500"/>
	<anchor name="liga" x="632" y="0"/>
</glyph>
<glyph name="n" format="2">
	<unicode hex="006E"/>
	<advance width="1272"/>
	<outline>
		<contour>
			<point x="77.2239990234" y="0" type="line"/>
			<point x="77.2239990234" y="81.00390625" type="line"/>
			<point x="225.2239990234" y="116.00390625" type="line"/>
			<point x="227.2239990234" y="580.9758300781" type="line"/>
			<point x="225.2239990234" y="845.3924560547" type="line"/>
			<point x="77.2239990234" y="875.3924560547" type="line"/>
			<point x="77.2239990234" y="969.3963623047" type="line"/>
			<point x="327.1009521484" y="1006.4207763672" type="line"/>
			<point x="362.1009521484" y="979.4207763672" type="line"/>
			<point x="388.8221435547" y="854.1164550781" type="line"/>
			<point x="451.6253662109" y="926.17578125"/>
			<point x="635.5559082031" y="1014.6793212891"/>
			<point x="760.8249511719" y="1014.6793212891" type="qcurve" smooth="yes"/>
			<point x="910.1862792969" y="1014.6793212891"/>
			<point x="1056.8352050781" y="864.8912353516"/>
			<point x="1056.8352050781" y="726.2852783203" type="qcurve" smooth="yes"/>
			<point x="1056.8352050781" y="701.5988769531"/>
			<point x="1051.3151855469" y="588.6201171875"/>
			<point x="1050.8352050781" y="573.2587890625" type="qcurve" smooth="yes"/>
			<point x="1056.8352050781" y="115.00390625" type="line"/>
			<point x="1206.8352050781" y="81.00390625" type="line"/>
			<point x="1206.8352050781" y="0" type="line"/>
			<point x="764.8430175781" y="0" type="line"/>
			<point x="764.8430175781" y="81.00390625" type="line"/>
			<point x="878.8430175781" y="116.00390625" type="line"/>
			<point x="882.8430175781" y="593.0278320312" type="line"/>
			<point x="882.8430175781" y="729.3245849609" type="line" smooth="yes"/>
			<point x="882.8430175781" y="804.3135986328"/>
			<point x="772.7008056641" y="885.4030761719"/>
			<point x="682.5533447266" y="885.4030761719" type="qcurve" smooth="yes"/>
			<point x="590.6553955078" y="885.4030761719"/>
			<point x="428.6098632812" y="795.5153808594"/>
			<point x="394.2161865234" y="736.8026123047" type="qcurve"/>
			<point x="391.2161865234" y="599.7448730469" type="line"/>
			<point x="394.2161865234" y="116.00390625" type="line"/>
			<point x="521.2161865234" y="81.00390625" type="line"/>
			<point x="521.2161865234" y="0" type="line"/>
		</contour>
	</outline>
	<anchor name="bottom" x="632" y="0"/>
	<anchor name="top" x="632" y="1000"/>
	<anchor name="liga" x="1264" y="0"/>
</glyph>
<glyph name="o" format="2">
	<unicode hex="006F"/>
	<advance width="1156"/>
	<outline>
		<contour>
			<point x="64.0025634766" y="499.3969726562" type="qcurve" smooth="yes"/>
			<point x="64.0025634766" y="731.5953369141"/>
			<point x="342.7275390625" y="1015.5891113281"/>
			<point x="572.1339111328" y="1015.5891113281" type="qcurve" smooth="yes"/>
			<point x="806.2614746094" y="1015.5891113281"/>
			<point x="1092.2232666016" y="750.7880859375"/>
			<point x="1092.2232666016" y="505.3969726562" type="qcurve" smooth="yes"/>
			<point x="1092.2232666016" y="272.4571533203"/>
			<point x="813.7467041016" y="-19.5366210938"/>
			<point x="581.4797363281" y="-19.5366210938" type="qcurve" smooth="yes"/>
			<point x="348.80078125" y="-19.5366210938"/>
			<point x="64.0025634766" y="251.2644042969"/>
		</contour>
		<contour>
			<point x="236.0374755859" y="511.3969726562" type="qcurve" smooth="yes"/>
			<point x="237.54296875" y="340.3845214844"/>
			<point x="420.7830810547" y="69.8592529297"/>
			<point x="572.9283447266" y="69.8592529297" type="qcurve" smooth="yes"/>
			<point x="736.0440673828" y="69.8592529297"/>
			<point x="910.0247802734" y="315.3052368164"/>
			<point x="910.0247802734" y="498.3969726562" type="qcurve" smooth="yes"/>
			<point x="910.0247802734" y="667.3120727539"/>
			<point x="726.6324462891" y="898.5888671875"/>
			<point x="573.9283447266" y="898.5888671875" type="qcurve" smooth="yes"/>
			<point x="409.3714599609" y="898.5888671875"/>
			<point x="234.5319824219" y="691.5874633789"/>
		</contour>
	</outline>
	<anchor name="bottom" x="584" y="0"/>
	<anchor name="center" x="584" y="500"/>
	<anchor name="ogonek" x="747" y="0"/>
	<anchor name="top" x="584" y="1000"/>
	<anchor name="topright" x="751" y="1000"/>
	<anchor name="GRKtop" x="584" y="1000"/>
	<anchor name="yu_dash" x="150" y="500"/>
</glyph>
<glyph name="q" format="2">
	<unicode hex="0071"/>
	<advance width="1207"/>
	<outline>
		<contour>
			<point x="68.6029052734" y="489.9066162109" type="qcurve" smooth="yes"/>
			<point x="68.6029052734" y="736.8322753906"/>
			<point x="355.5242919922" y="1011.7183837891"/>
			<point x="562.56640625" y="1011.7183837891" type="qcurve" smooth="yes"/>
			<point x="645.5122070312" y="1011.7183837891"/>
			<point x="838.6767578125" y="980.2348632812"/>
			<point x="841.0871582031" y="986.4417724609" type="qcurve"/>
			<point x="906.0871582031" y="997.2159423828" type="line"/>
			<point x="1143.4776611328" y="968.1915283203" type="line"/>
			<point x="1143.4776611328" y="873.6676025391" type="line"/>
			<point x="1020.4776611328" y="852.6676025391" type="line"/>
			<point x="1015.4776611328" y="435.2283935547" type="line"/>
			<point x="1015.4776611328" y="-364.99609375" type="line"/>
			<point x="1158.4776611328" y="-399.99609375" type="line"/>
			<point x="1158.4776611328" y="-480" type="line"/>
			<point x="679.7884521484" y="-480" type="line"/>
			<point x="679.7884521484" y="-399.99609375" type="line"/>
			<point x="842.7884521484" y="-366.99609375" type="line"/>
			<point x="849.7884521484" y="89.7468261719" type="line"/>
			<point x="797.5458984375" y="44.6766357422"/>
			<point x="592.2249755859" y="-3.2780761719"/>
			<point x="494.2572021484" y="-3.2780761719" type="qcurve" smooth="yes"/>
			<point x="338.3936767578" y="-3.2780761719"/>
			<point x="68.6029052734" y="241.8326416016"/>
		</contour>
		<contour>
			<point x="251.6619873047" y="496.2481689453" type="qcurve" smooth="yes"/>
			<point x="251.6619873047" y="323.939453125"/>
			<point x="428.2135009766" y="112.9221191406"/>
			<point x="567.3001708984" y="112.9221191406" type="qcurve" smooth="yes"/>
			<point x="660.4597167969" y="112.9221191406"/>
			<point x="809.0871582031" y="171.0863037109"/>
			<point x="853.7884521484" y="212.9379882812" type="qcurve"/>
			<point x="853.7884521484" y="821.6265869141" type="line"/>
			<point x="814.0871582031" y="875.7578125"/>
			<point x="679.3944091797" y="916.9340820312"/>
			<point x="594.029296875" y="916.9340820312" type="qcurve" smooth="yes"/>
			<point x="450.2661132812" y="916.9340820312"/>
			<point x="251.6619873047" y="658.8892822266"/>
		</contour>
	</outline>
	<anchor name="bottom" x="594" y="0"/>
	<anchor name="top" x="594" y="1000"/>
</glyph>
<glyph name="x" format="2">
	<unicode hex="0078"/>
	<advance width="864"/>
	<outline>
		<contour>
			<point x="-72.2955932617" y="0" type="line"/>
			<point x="-72.2955932617" y="94.00390625" type="line"/>
			<point x="86.7044067383" y="130.00390625" type="line"/>
			<point x="331.8827514648" y="459.9167480469" type="line"/>
			<point x="78.7090454102" y="868.7900390625" type="line"/>
			<point x="-40.2909545898" y="903.7900390625" type="line"/>
			<point x="-40.2909545898" y="998.7939453125" type="line"/>
			<point x="359.3442993164" y="998.7939453125" type="line"/>
			<point x="359.3442993164" y="903.7900390625" type="line"/>
			<point x="289.3442993164" y="866.7900390625" type="line"/>
			<point x="418.4337768555" y="666.3055419922" type="line"/>
			<point x="454.2907104492" y="556.7141113281" type="line"/>
			<point x="466.2907104492" y="556.7141113281" type="line"/>
			<point x="507.4234008789" y="666.0130615234" type="line"/>
			<point x="632.587097168" y="873.7900390625" type="line"/>
			<point x="553.587097168" y="903.7900390625" type="line"/>
			<point x="553.587097168" y="998.7939453125" type="line"/>
			<point x="890.7412719727" y="998.7939453125" type="line"/>
			<point x="890.7412719727" y="903.7900390625" type="line"/>
			<point x="741.7412719727" y="868.7900390625" type="line"/>
			<point x="489.2500610352" y="506.0157470703" type="line"/>
			<point x="767.9815063477" y="130.00390625" type="line"/>
			<point x="923.9815063477" y="94.00390625" type="line"/>
			<point x="923.9815063477" y="0" type="line"/>
			<point x="424.1770629883" y="0" type="line"/>
			<point x="424.1770629883" y="94.00390625" type="line"/>
			<point x="516.1770629883" y="129.00390625" type="line"/>
			<point x="407.2743530273" y="301.7020263672" type="line"/>
			<point x="367.458190918" y="404.7403564453" type="line"/>
			<point x="355.458190918" y="404.7403564453" type="line"/>
			<point x="313.0726928711" y="300.9573974609" type="line"/>
			<point x="209.858581543" y="129.00390625" type="line"/>
			<point x="295.858581543" y="94.00390625" type="line"/>
			<point x="295.858581543" y="0" type="line"/>
		</contour>
	</outline>
	<anchor name="bottom" x="522" y="0"/>
	<anchor name="top" x="522" y="1000"/>
	<anchor name="cy_descender" x="1043" y="80"/>
</glyph>
<glyph name="z" format="2">
	<unicode hex="007A"/>
	<advance width="929"/>
	<outline>
		<contour>
			<point x="80.8275146484" y="0" type="line"/>
			<point x="80.8275146484" y="125.4506835938" type="line"/>
			<point x="661.1302490234" y="869.2332763672" type="line"/>
			<point x="213.2426147461" y="869.2332763672" type="line"/>
			<point x="181.2426147461" y="696.1676025391" type="line"/>
			<point x="73.18359375" y="696.1676025391" type="line"/>
			<point x="73.18359375" y="998.7939453125" type="line"/>
			<point x="823.5054931641" y="998.7939453125" type="line"/>
			<point x="823.5054931641" y="874.3432617188" type="line"/>
			<point x="251.2041015625" y="122.5606689453" type="line"/>
			<point x="747.128112793" y="122.5606689453" type="line"/>
			<point x="779.128112793" y="292.6263427734" type="line"/>
			<point x="888.3952636719" y="292.6263427734" type="line"/>
			<point x="888.3952636719" y="0" type="line"/>
		</contour>
	</outline>
	<anchor name="bottom" x="443" y="0"/>
	<anchor name="top" x="443" y="1000"/>
	<anchor name="_liga" x="0" y="0"/>
</glyph>
<glyph name="idotless" format="2">
	<unicode hex="0131"/>
	<advance width="629"/>
	<outline>
		<contour>
			<point x="91.2647705078" y="0" type="line"/>
			<point x="91.2647705078" y="81.00390625" type="line"/>
			<point x="239.2647705078" y="116.00390625" type="line"/>
			<point x="241.2647705078" y="570.9758300781" type="line"/>
			<point x="237.3448486328" y="844.7900390625" type="line"/>
			<point x="91.2647705078" y="874.7900390625" type="line"/>
			<point x="91.2647705078" y="969.7939453125" type="line"/>
			<point x="297.2569580078" y="995.818359375" type="line"/>
			<point x="375.2569580078" y="995.818359375" type="line"/>
			<point x="418.2569580078" y="946.818359375" type="line"/>
			<point x="411.2569580078" y="570.9758300781" type="line"/>
			<point x="413.2569580078" y="116.00390625" type="line"/>
			<point x="571.2569580078" y="81.00390625" type="line"/>
			<point x="571.2569580078" y="0" type="line"/>
		</contour>
	</outline>
	<anchor name="bottom" x="320" y="0"/>
	<anchor name="top" x="320" y="1000"/>
	<anchor name="ogonek" x="513" y="0"/>
	<anchor name="liga" x="639" y="0"/>
</glyph>
<glyph name="jdotless" format="2">
	<advance width="577"/>
	<outline>
		<contour>
			<point x="-51.3524169922" y="-484" type="qcurve"/>
			<point x="-51.3524169922" y="-372.2763671875" type="line"/>
			<point x="108.2476806641" y="-378.7290039062"/>
			<point x="225.8256835938" y="-237.2816162109"/>
			<point x="225.3056640625" y="-69.4815673828" type="qcurve" smooth="yes"/>
			<point x="224.3056640625" y="577" type="line"/>
			<point x="220.3857421875" y="844.7900390625" type="line"/>
			<point x="74.3056640625" y="874.7900390625" type="line"/>
			<point x="74.3056640625" y="968.7939453125" type="line"/>
			<point x="281.2978515625" y="995.818359375" type="line"/>
			<point x="358.2978515625" y="995.818359375" type="line"/>
			<point x="401.2978515625" y="946.818359375" type="line"/>
			<point x="395.2978515625" y="577" type="line"/>
			<point x="398.2978515625" y="2.0789794922" type="line" smooth="yes"/>
			<point x="399.2978515625" y="-242.2841796875"/>
			<point x="225.3142089844" y="-506.8605957031"/>
		</contour>
	</outline>
	<anchor name="bottom" x="278" y="-436"/>
	<anchor name="top" x="278" y="1000"/>
	<anchor name="_liga" x="0" y="0"/>
</glyph>
